<svg width="22" height="22" viewBox="0 0 22 22" fill="none" xmlns="http://www.w3.org/2000/svg">
<path d="M11 0C4.9346 0 0 4.9346 0 11C0 17.0654 4.9346 22 11 22C17.0654 22 22 17.0654 22 11C22 4.9346 17.0654 0 11 0ZM11 20C6.03733 20 2 15.9626 2 11C2 6.0374 6.03733 2 11 2C15.9627 2 20 6.0374 20 11C20 15.9626 15.9626 20 11 20Z" fill="white"/>
<path d="M15.1248 7.11092L9.46786 12.7678L6.87519 10.1751C6.48472 9.78458 5.85152 9.78452 5.46099 10.175C5.07046 10.5655 5.07046 11.1986 5.46099 11.5892L8.76072 14.889C8.94826 15.0766 9.20259 15.182 9.46779 15.182C9.46786 15.182 9.46779 15.182 9.46786 15.182C9.73306 15.182 9.98739 15.0766 10.1749 14.8891L16.539 8.52519C16.9295 8.13465 16.9295 7.50152 16.539 7.11099C16.1485 6.72045 15.5153 6.72039 15.1248 7.11092Z" fill="white"/>
</svg>
