<svg width="22" height="22" viewBox="0 0 22 22" fill="none" xmlns="http://www.w3.org/2000/svg">
<path d="M21.0833 10.0833C20.5773 10.0833 20.1667 10.494 20.1667 11C20.1667 16.0545 16.0545 20.1667 11 20.1667C5.9455 20.1667 1.83333 16.0545 1.83333 11C1.83333 5.9455 5.9455 1.83333 11 1.83333C13.4608 1.83333 15.7708 2.79492 17.5047 4.54117C17.8613 4.90004 18.442 4.90233 18.8008 4.54575C19.1602 4.18917 19.162 3.60846 18.8054 3.24913C16.725 1.15408 13.9526 0 11 0C4.93442 0 0 4.93442 0 11C0 17.0656 4.93442 22 11 22C17.0651 22 22 17.0656 22 11C22 10.494 21.5893 10.0833 21.0833 10.0833Z" fill="white"/>
<path d="M12.2961 11L14.3981 8.89807C14.756 8.54011 14.756 7.95986 14.3981 7.6019C14.0401 7.24395 13.4599 7.24395 13.1019 7.6019L11 9.70382L8.89807 7.6019C8.54057 7.24395 7.9594 7.24395 7.6019 7.6019C7.24395 7.95986 7.24395 8.54011 7.6019 8.89807L9.70382 11L7.6019 13.1019C7.24395 13.4599 7.24395 14.0401 7.6019 14.3981C7.78065 14.5773 8.01532 14.6667 8.24999 14.6667C8.48465 14.6667 8.71932 14.5773 8.89807 14.3981L11 12.2962L13.1019 14.3981C13.2811 14.5773 13.5153 14.6667 13.75 14.6667C13.9846 14.6667 14.2189 14.5773 14.3981 14.3981C14.756 14.0401 14.756 13.4599 14.3981 13.1019L12.2961 11Z" fill="white"/>
</svg>
