<svg width="22" height="22" viewBox="0 0 22 22" fill="none" xmlns="http://www.w3.org/2000/svg">
<path d="M17.9559 20.315H3.72058V21.9326H17.9559V20.315Z" fill="white"/>
<path d="M13.3995 7.29291H8.41181C7.96506 7.29291 7.60297 7.65501 7.60297 8.10175C7.60297 8.5485 7.96506 8.91059 8.41181 8.91059H13.3995C13.8463 8.91059 14.2084 8.5485 14.2084 8.10175C14.2084 7.65501 13.8463 7.29291 13.3995 7.29291Z" fill="white"/>
<path d="M17.174 11.0674H8.41181C7.96506 11.0674 7.60297 11.4295 7.60297 11.8762C7.60297 12.323 7.96506 12.6851 8.41181 12.6851H17.1741C17.6208 12.6851 17.9829 12.323 17.9829 11.8762C17.9829 11.4295 17.6208 11.0674 17.174 11.0674Z" fill="white"/>
<path d="M21.5233 0.165828C21.233 0.0353315 20.8936 0.0868511 20.6552 0.297398L18.3902 2.30112L16.1226 0.273378C15.8155 -0.00136379 15.3512 -0.00136379 15.0441 0.273378L12.7794 2.29867L10.5145 0.273378C10.2074 -0.00136379 9.74338 -0.00136379 9.43628 0.273378L7.1686 2.30112L4.90364 0.297398C4.66559 0.0871089 4.32588 0.0355894 4.0355 0.165828C3.74541 0.296582 3.55884 0.585074 3.55884 0.903214V15.3003H0.808844C0.362098 15.3002 0 15.6623 0 16.1091V18.0772C0 20.2031 1.72953 21.9326 3.85537 21.9326V20.315C2.62139 20.315 1.61764 19.3109 1.61764 18.0772V16.9179H14.2892V18.0772C14.2892 20.2031 16.0187 21.9326 18.1446 21.9326C20.2704 21.9326 22 20.2031 22 18.0773V0.903172C22 0.585031 21.8134 0.296582 21.5233 0.165828ZM20.3824 18.0772C20.3824 19.3109 19.3783 20.315 18.1446 20.315C16.9109 20.315 15.9069 19.3109 15.9069 18.0772V16.1091C15.9069 15.6623 15.5448 15.3002 15.0981 15.3002H5.17649V2.69849L6.63588 3.98966C6.94323 4.26144 7.40532 4.26006 7.71078 3.9867L9.9755 1.96141L12.2402 3.98644C12.5473 4.26118 13.0115 4.26118 13.3186 3.98644L15.5836 1.96115L17.8483 3.98644C18.154 4.2598 18.6162 4.26088 18.9232 3.9894L20.3824 2.69853V18.0772V18.0772Z" fill="white"/>
</svg>
