<svg width="20" height="22" viewBox="0 0 20 22" fill="none" xmlns="http://www.w3.org/2000/svg">
<path d="M4.72656 10.8711H4.29688C3.82224 10.8711 3.4375 11.2558 3.4375 11.7305C3.4375 12.2051 3.82224 12.5898 4.29688 12.5898H4.72656C5.2012 12.5898 5.58594 12.2051 5.58594 11.7305C5.58594 11.2558 5.2012 10.8711 4.72656 10.8711Z" fill="white"/>
<path d="M13.1914 7.43359H7.73438C7.25974 7.43359 6.875 7.81834 6.875 8.29297C6.875 8.7676 7.25974 9.15234 7.73438 9.15234H13.1914C13.666 9.15234 14.0508 8.7676 14.0508 8.29297C14.0508 7.81834 13.666 7.43359 13.1914 7.43359Z" fill="white"/>
<path d="M11.8116 20.2812H3.4375C2.48978 20.2812 1.71875 19.5102 1.71875 18.5625V3.4375C1.71875 2.48978 2.48978 1.71875 3.4375 1.71875H14.003C14.9508 1.71875 15.7218 2.48978 15.7218 3.4375V8.29297C15.7218 8.7676 16.1065 9.15234 16.5812 9.15234C17.0558 9.15234 17.4405 8.7676 17.4405 8.29297V3.4375C17.4405 1.54206 15.8985 0 14.003 0H3.4375C1.54206 0 0 1.54206 0 3.4375V18.5625C0 20.4579 1.54206 22 3.4375 22H11.8116C12.2863 22 12.671 21.6153 12.671 21.1406C12.671 20.666 12.2863 20.2812 11.8116 20.2812Z" fill="white"/>
<path d="M4.72656 14.3086H4.29688C3.82224 14.3086 3.4375 14.6933 3.4375 15.168C3.4375 15.6426 3.82224 16.0273 4.29688 16.0273H4.72656C5.2012 16.0273 5.58594 15.6426 5.58594 15.168C5.58594 14.6933 5.2012 14.3086 4.72656 14.3086Z" fill="white"/>
<path d="M13.1914 3.99609H7.73438C7.25974 3.99609 6.875 4.38084 6.875 4.85547C6.875 5.3301 7.25974 5.71484 7.73438 5.71484H13.1914C13.666 5.71484 14.0508 5.3301 14.0508 4.85547C14.0508 4.38084 13.666 3.99609 13.1914 3.99609Z" fill="white"/>
<path d="M17.1289 15.4668H16.3414C15.9562 15.4668 15.6429 15.1479 15.6429 14.7559V14.6397C15.6429 14.255 15.9432 13.9648 16.3414 13.9648H17.086C17.3049 13.9648 17.5313 14.1114 17.5313 14.3565C17.5313 14.8312 17.916 15.2159 18.3906 15.2159C18.8653 15.2159 19.25 14.8312 19.25 14.3565C19.25 13.3266 18.4895 12.4672 17.4874 12.2831V11.7305C17.4874 11.2558 17.1027 10.8711 16.6281 10.8711C16.1534 10.8711 15.7687 11.2558 15.7687 11.7305V12.3126C15.3434 12.413 14.9537 12.625 14.6378 12.9342C14.1776 13.3845 13.9242 13.9902 13.9242 14.6397V14.7559C13.9242 16.0956 15.0085 17.1855 16.3414 17.1855H17.1289C17.5166 17.1855 17.832 17.4996 17.832 17.8857V18.2939C17.832 18.6675 17.5298 18.9492 17.1289 18.9492H15.849C15.6068 18.9492 15.4241 18.7758 15.4241 18.5458C15.4241 18.0712 15.0393 17.6864 14.5647 17.6864C14.0901 17.6864 13.7053 18.0712 13.7053 18.5458C13.7053 19.1214 13.9309 19.6586 14.3405 20.0585C14.7242 20.433 15.2287 20.6467 15.7687 20.6661V21.1406C15.7687 21.6153 16.1534 22 16.6281 22C17.1027 22 17.4874 21.6153 17.4874 21.1406V20.6429C18.6695 20.4777 19.5508 19.5054 19.5508 18.2939V17.8857C19.5508 16.5519 18.4643 15.4668 17.1289 15.4668Z" fill="white"/>
<path d="M11.4727 16.0273C11.9473 16.0273 12.332 15.6426 12.332 15.168C12.332 14.6933 11.9473 14.3086 11.4727 14.3086H7.73438C7.25974 14.3086 6.875 14.6933 6.875 15.168C6.875 15.6426 7.25974 16.0273 7.73438 16.0273H11.4727Z" fill="white"/>
<path d="M4.72656 7.43359H4.29688C3.82224 7.43359 3.4375 7.81834 3.4375 8.29297C3.4375 8.7676 3.82224 9.15234 4.29688 9.15234H4.72656C5.2012 9.15234 5.58594 8.7676 5.58594 8.29297C5.58594 7.81834 5.2012 7.43359 4.72656 7.43359Z" fill="white"/>
<path d="M14.0508 11.7305C14.0508 11.2558 13.666 10.8711 13.1914 10.8711H7.73438C7.25974 10.8711 6.875 11.2558 6.875 11.7305C6.875 12.2051 7.25974 12.5898 7.73438 12.5898H13.1914C13.666 12.5898 14.0508 12.2051 14.0508 11.7305Z" fill="white"/>
<path d="M4.72656 3.99609H4.29688C3.82224 3.99609 3.4375 4.38084 3.4375 4.85547C3.4375 5.3301 3.82224 5.71484 4.29688 5.71484H4.72656C5.2012 5.71484 5.58594 5.3301 5.58594 4.85547C5.58594 4.38084 5.2012 3.99609 4.72656 3.99609Z" fill="white"/>
</svg>
