<svg width="40" height="40" viewBox="0 0 40 40" fill="none" xmlns="http://www.w3.org/2000/svg">
<path d="M35.4283 18.27C36.2183 19.3033 36.2183 20.6983 35.4283 21.73C32.94 24.9783 26.97 31.6667 20 31.6667C13.03 31.6667 7.06001 24.9783 4.57167 21.73C4.18731 21.2352 3.97867 20.6265 3.97867 20C3.97867 19.3735 4.18731 18.7648 4.57167 18.27C7.06001 15.0217 13.03 8.33333 20 8.33333C26.97 8.33333 32.94 15.0217 35.4283 18.27V18.27Z" stroke="white" stroke-width="2" stroke-linecap="round" stroke-linejoin="round"/>
<path d="M20 25C22.7614 25 25 22.7614 25 20C25 17.2386 22.7614 15 20 15C17.2386 15 15 17.2386 15 20C15 22.7614 17.2386 25 20 25Z" stroke="white" stroke-width="2" stroke-linecap="round" stroke-linejoin="round"/>
</svg>
