<svg width="40" height="40" viewBox="0 0 40 40" fill="none" xmlns="http://www.w3.org/2000/svg">
<path d="M20 0.625C9.29688 0.625 0.625 9.29688 0.625 20C0.625 30.7031 9.29688 39.375 20 39.375C30.7031 39.375 39.375 30.7031 39.375 20C39.375 9.29688 30.7031 0.625 20 0.625ZM20 35.625C11.3672 35.625 4.375 28.6328 4.375 20C4.375 11.3672 11.3672 4.375 20 4.375C28.6328 4.375 35.625 11.3672 35.625 20C35.625 28.6328 28.6328 35.625 20 35.625ZM24.8281 27.4688L18.1953 22.6484C17.9531 22.4687 17.8125 22.1875 17.8125 21.8906V9.0625C17.8125 8.54688 18.2344 8.125 18.75 8.125H21.25C21.7656 8.125 22.1875 8.54688 22.1875 9.0625V20.1328L27.4062 23.9297C27.8281 24.2344 27.9141 24.8203 27.6094 25.2422L26.1406 27.2656C25.8359 27.6797 25.25 27.7734 24.8281 27.4688Z" fill="white"/>
</svg>
