<svg width="18" height="18" viewBox="0 0 18 18" fill="none" xmlns="http://www.w3.org/2000/svg">
<path d="M14.6912 16.6213H3.04413V17.9449H14.6912V16.6213Z" fill="#FFBA14"/>
<path d="M10.9632 5.96692H6.88236C6.51684 5.96692 6.22058 6.26318 6.22058 6.6287C6.22058 6.99422 6.51684 7.29048 6.88236 7.29048H10.9632C11.3287 7.29048 11.625 6.99422 11.625 6.6287C11.625 6.26318 11.3287 5.96692 10.9632 5.96692Z" fill="#FFBA14"/>
<path d="M14.0515 9.05518H6.88236C6.51684 9.05518 6.22058 9.35144 6.22058 9.71696C6.22058 10.0825 6.51684 10.3787 6.88236 10.3787H14.0515C14.417 10.3787 14.7132 10.0825 14.7132 9.71696C14.7132 9.35144 14.417 9.05518 14.0515 9.05518Z" fill="#FFBA14"/>
<path d="M17.61 0.13571C17.3724 0.0289409 17.0947 0.0710933 16.8997 0.243359L15.0466 1.88277L13.1912 0.223707C12.9399 -0.00108253 12.5601 -0.00108253 12.3088 0.223707L10.4559 1.88076L8.60273 0.223707C8.35147 -0.00108253 7.97186 -0.00108253 7.72059 0.223707L5.86522 1.88277L4.01207 0.243359C3.8173 0.0713042 3.53936 0.0291519 3.30177 0.13571C3.06443 0.242691 2.91178 0.47873 2.91178 0.739027V12.5184H0.661781C0.296262 12.5184 0 12.8147 0 13.1802V14.7905C0 16.5298 1.41507 17.9449 3.15439 17.9449V16.6214C2.14478 16.6214 1.32353 15.7999 1.32353 14.7905V13.842H11.6912V14.7905C11.6912 16.5298 13.1062 17.9449 14.8456 17.9449C16.5849 17.9449 18 16.5298 18 14.7905V0.738992C18 0.478695 17.8474 0.242691 17.61 0.13571ZM16.6765 14.7905C16.6765 15.7999 15.855 16.6214 14.8456 16.6214C13.8362 16.6214 13.0147 15.7999 13.0147 14.7905V13.1802C13.0147 12.8147 12.7185 12.5184 12.353 12.5184H4.23531V2.20789L5.42936 3.2643C5.68083 3.48666 6.0589 3.48554 6.30882 3.26187L8.16177 1.60482L10.0147 3.26166C10.266 3.48645 10.6458 3.48645 10.8971 3.26166L12.7502 1.60461L14.6032 3.26166C14.8533 3.48533 15.2314 3.48621 15.4826 3.26409L16.6765 2.20793V14.7905V14.7905Z" fill="#FFBA14"/>
</svg>
