<svg width="26" height="26" viewBox="0 0 26 26" fill="none" xmlns="http://www.w3.org/2000/svg">
<path d="M21.4551 5.02734V3.80859C21.4551 1.70854 19.7465 0 17.6465 0H8.30273C6.20268 0 4.49414 1.70854 4.49414 3.80859V5.02734H21.4551Z" fill="#A9AFB8"/>
<path d="M6.01758 16.1992V22.3945V23.7148V24.4766C6.01758 25.3179 6.69962 26 7.54102 26H18.4082C19.2496 26 19.9316 25.3179 19.9316 24.4766V23.7148V22.3945V16.1992H6.01758ZM15.0059 22.6992H10.9434C10.5227 22.6992 10.1816 22.3582 10.1816 21.9375C10.1816 21.5168 10.5227 21.1758 10.9434 21.1758H15.0059C15.4265 21.1758 15.7676 21.5168 15.7676 21.9375C15.7676 22.3582 15.4265 22.6992 15.0059 22.6992ZM15.0059 19.4492H10.9434C10.5227 19.4492 10.1816 19.1082 10.1816 18.6875C10.1816 18.2668 10.5227 17.9258 10.9434 17.9258H15.0059C15.4265 17.9258 15.7676 18.2668 15.7676 18.6875C15.7676 19.1082 15.4265 19.4492 15.0059 19.4492Z" fill="#A9AFB8"/>
<path d="M22.166 6.55078H3.83398C1.73393 6.55078 0.0253906 8.25932 0.0253906 10.3594V16.4531C0.0253906 18.5532 1.73393 20.2617 3.83398 20.2617H4.49414V16.1992H4.03711C3.61644 16.1992 3.27539 15.8582 3.27539 15.4375C3.27539 15.0168 3.61644 14.6758 4.03711 14.6758H5.25586H20.6934H21.9121C22.3328 14.6758 22.6738 15.0168 22.6738 15.4375C22.6738 15.8582 22.3328 16.1992 21.9121 16.1992H21.4551V20.2617H22.166C24.2661 20.2617 25.9746 18.5532 25.9746 16.4531V10.3594C25.9746 8.25932 24.2661 6.55078 22.166 6.55078ZM6.47461 11.3242H4.03711C3.61644 11.3242 3.27539 10.9832 3.27539 10.5625C3.27539 10.1418 3.61644 9.80078 4.03711 9.80078H6.47461C6.89528 9.80078 7.23633 10.1418 7.23633 10.5625C7.23633 10.9832 6.89528 11.3242 6.47461 11.3242Z" fill="#A9AFB8"/>
</svg>
