<svg width="24" height="24" viewBox="0 0 24 24" fill="none" xmlns="http://www.w3.org/2000/svg">
<path d="M21.3333 0H2.66667C1.95942 0 1.0001 -9.69768e-05 0.5 0.5C-9.69768e-05 1.0001 0 1.95942 0 2.66667V21.3333C0 22.0406 -9.69768e-05 22.9999 0.5 23.5C1.0001 24.0001 1.95942 24 2.66667 24H21.3333C22.0406 24 22.9999 24.0001 23.5 23.5C24.0001 22.9999 24 22.0406 24 21.3333V2.66667C24 1.95942 24.0001 1.0001 23.5 0.5C22.9999 -9.69768e-05 22.0406 0 21.3333 0ZM22 22H2V2H22V22ZM8 18.6667H6V12H8V18.6667ZM13 18.6667H11V5.33333H13V18.6667ZM18 18.6667H16V9.33333H18V18.6667Z" fill="#72757A"/>
</svg>
