<svg width="50" height="50" viewBox="0 0 50 50" fill="none" xmlns="http://www.w3.org/2000/svg">
<path d="M5 27.4344V26.0214C5 21.3391 8.79579 17.5433 13.4781 17.5433H19.1302C23.8126 17.5433 27.6084 21.3391 27.6084 26.0214V27.4344" stroke="#72757A" stroke-width="3.5" stroke-linecap="round"/>
<path d="M16.3041 13.3042C13.1825 13.3042 10.652 10.7737 10.652 7.65209C10.652 4.53053 13.1825 2 16.3041 2C19.4256 2 21.9562 4.53053 21.9562 7.65209C21.9562 10.7737 19.4256 13.3042 16.3041 13.3042Z" stroke="#72757A" stroke-width="3.5" stroke-linecap="round"/>
<path d="M22.2483 27.4344V26.0214C22.2483 21.3391 26.0441 17.5433 30.7264 17.5433H36.3785C41.0609 17.5433 44.8567 21.3391 44.8567 26.0214V27.4344" stroke="#72757A" stroke-width="3.5" stroke-linecap="round"/>
<path d="M33.5524 13.3042C30.4308 13.3042 27.9003 10.7737 27.9003 7.65209C27.9003 4.53053 30.4308 2 33.5524 2C36.6739 2 39.2044 4.53053 39.2044 7.65209C39.2044 10.7737 36.6739 13.3042 33.5524 13.3042Z" stroke="#72757A" stroke-width="3.5" stroke-linecap="round"/>
<path d="M21.1424 48.1738C21.4263 47.8899 21.4266 47.4298 21.1431 47.1455L19.0453 45.0418H33.026C33.4288 45.0418 33.7553 44.7153 33.7553 44.3125V44.3125C33.7553 43.9097 33.4288 43.5832 33.026 43.5832H19.0453L21.1431 41.4795C21.4266 41.1952 21.4263 40.7351 21.1424 40.4512V40.4512C20.8582 40.167 20.3975 40.167 20.1134 40.4512L16.9592 43.6054C16.5687 43.9959 16.5687 44.6291 16.9592 45.0196L20.1134 48.1738C20.3975 48.458 20.8582 48.458 21.1424 48.1738V48.1738ZM33.0482 36.268C33.4387 35.8775 33.4387 35.2443 33.0482 34.8538L29.894 31.6996C29.6099 31.4154 29.1492 31.4154 28.865 31.6996V31.6996C28.5811 31.9835 28.5808 32.4436 28.8643 32.7279L30.9621 34.8316H16.9814C16.5786 34.8316 16.2521 35.1581 16.2521 35.5609V35.5609C16.2521 35.9637 16.5786 36.2902 16.9814 36.2902H30.9621L28.8643 38.3939C28.5808 38.6781 28.5811 39.1383 28.865 39.4222V39.4222C29.1492 39.7063 29.6099 39.7063 29.894 39.4222L33.0482 36.268Z" fill="#72757A"/>
</svg>
