<svg width="24" height="24" viewBox="0 0 24 24" fill="none" xmlns="http://www.w3.org/2000/svg">
<path d="M9.36047 21.3333C9.36047 22.8031 10.5544 24 12.0272 24C13.4969 24 14.6938 22.8061 14.6938 21.3333H9.36047V21.3333Z" fill="#72757A"/>
<path d="M22.2472 16.4357L20.0335 13.1908V7.94854C20.0335 3.59348 16.5518 0.073228 12.213 0.00191553C12.1821 0.00141553 12.1512 0.00110303 12.1202 0.000915527C12.0893 0.00147803 12.0583 0.00216553 12.0275 0.00304053C7.68909 0.128666 4.1149 3.69285 4.00471 8.0506L3.87571 13.1549L1.73696 16.4054C0.927148 17.6362 1.46709 18.634 2.94084 18.634H21.0767C22.5514 18.634 23.0744 17.6483 22.2472 16.4357ZM5.21727 15.9674L6.52221 13.984L6.67046 8.11804C6.74502 5.16948 9.19565 2.73617 12.1368 2.66785C15.0387 2.69898 17.3668 5.04123 17.3668 7.9486V14.0138L18.6995 15.9674H5.21727V15.9674Z" fill="#72757A"/>
<path d="M12.0275 0.0011875C12.0585 0.001 12.0894 0.001 12.1203 0.001125C12.1512 0.0005625 12.182 0.0001875 12.213 0L12.0275 0.0011875Z" fill="#72757A"/>
</svg>
