<svg width="24" height="24" viewBox="0 0 24 24" fill="none" xmlns="http://www.w3.org/2000/svg">
<path d="M19.3125 14.0682C19.8303 14.0682 20.25 14.4879 20.25 15.0057V16.1307C20.25 16.6485 19.8303 17.0682 19.3125 17.0682H17.1562C16.6384 17.0682 16.2188 16.6485 16.2188 16.1307V15.0057C16.2188 14.4879 16.6384 14.0682 17.1562 14.0682H19.3125ZM22.125 12.3807V9.56818H1.875V17.0625C1.875 18.0963 2.71619 18.9375 3.75 18.9375H20.25C21.2838 18.9375 22.125 18.0963 22.125 17.0625C22.125 16.5447 22.5447 16.125 23.0625 16.125C23.5803 16.125 24 16.5447 24 17.0625C24 19.1303 22.3178 20.8125 20.25 20.8125H3.75C1.68219 20.8125 0 19.1303 0 17.0625V6.9375C0 4.86969 1.68219 3.1875 3.75 3.1875H20.25C22.3178 3.1875 24 4.86969 24 6.9375V12.3807C24 12.8985 23.5803 13.3182 23.0625 13.3182C22.5447 13.3182 22.125 12.8985 22.125 12.3807ZM22.125 7.69318V6.9375C22.125 5.90369 21.2838 5.0625 20.25 5.0625H3.75C2.71619 5.0625 1.875 5.90369 1.875 6.9375V7.69318H22.125ZM4.6875 11.4432C4.16968 11.4432 3.75 11.8629 3.75 12.3807C3.75 12.8985 4.16968 13.3182 4.6875 13.3182H12.4219C12.9397 13.3182 13.3594 12.8985 13.3594 12.3807C13.3594 11.8629 12.9397 11.4432 12.4219 11.4432H4.6875Z" fill="#72757A"/>
</svg>
