<svg width="24" height="24" viewBox="0 0 24 24" fill="none" xmlns="http://www.w3.org/2000/svg">
<g clip-path="url(#clip0_1106_10)">
<path d="M24 17.9062C24 18.5493 23.9 19.1829 23.7032 19.7895C23.5433 20.282 23.0143 20.5516 22.522 20.3917C22.0294 20.2319 21.7599 19.7029 21.9197 19.2105C22.056 18.7912 22.125 18.3523 22.125 17.9062C22.125 15.5801 20.2324 13.6875 17.9062 13.6875C15.5801 13.6875 13.6875 15.5801 13.6875 17.9062C13.6875 20.2324 15.5801 22.125 17.9062 22.125C18.4503 22.125 18.9792 22.0232 19.4784 21.8225C19.9592 21.6295 20.5049 21.8624 20.6981 22.3429C20.8911 22.8232 20.6581 23.3692 20.1779 23.5624C19.4551 23.8528 18.6909 24 17.9062 24C14.5461 24 11.8125 21.2664 11.8125 17.9062C11.8125 14.5461 14.5461 11.8125 17.9062 11.8125C21.2664 11.8125 24 14.5461 24 17.9062V17.9062ZM18.0469 20.4375C18.5647 20.4375 18.9844 20.0178 18.9844 19.5V16.2188C18.9844 15.8632 18.7831 15.5381 18.4649 15.3796C18.1465 15.221 17.766 15.2563 17.482 15.4704L16.3101 16.355C15.897 16.667 15.8148 17.2548 16.1266 17.668C16.3618 17.9795 16.7536 18.1031 17.1094 18.0112V19.5C17.1094 20.0178 17.5291 20.4375 18.0469 20.4375ZM11.7656 23.0625C11.7656 23.5803 11.3459 24 10.8281 24H0.9375C0.419678 24 0 23.5803 0 23.0625V2.81268C0 1.26196 1.2616 0.000366211 2.81213 0.000183105L18.8436 0C18.8459 0 18.8481 0.000366211 18.8503 0.000366211C19.5991 0.00201416 20.3027 0.29425 20.8325 0.823792C21.3636 1.35498 21.6562 2.0614 21.6562 2.81268V6.28125C21.6562 6.79907 21.2366 7.21875 20.7188 7.21875H17.9062V9.32812C17.9062 9.84595 17.4866 10.2656 16.9688 10.2656C16.4509 10.2656 16.0312 9.84595 16.0312 9.32812V2.81268C16.0312 2.48401 16.0886 2.16852 16.1926 1.875L2.81232 1.87518C2.29559 1.87518 1.875 2.29578 1.875 2.81268V22.125H10.8281C11.3459 22.125 11.7656 22.5447 11.7656 23.0625V23.0625ZM19.7812 2.81268C19.7812 2.56219 19.6837 2.32672 19.5066 2.14966C19.3295 1.9726 19.0941 1.87518 18.8436 1.87518C18.3268 1.87518 17.9062 2.29578 17.9062 2.81268V5.34375H19.7812V2.81268ZM13.2188 5.34375H12.75C12.2322 5.34375 11.8125 5.76343 11.8125 6.28125C11.8125 6.79907 12.2322 7.21875 12.75 7.21875H13.2188C13.7366 7.21875 14.1562 6.79907 14.1562 6.28125C14.1562 5.76343 13.7366 5.34375 13.2188 5.34375ZM9.46875 5.34375H4.6875C4.16968 5.34375 3.75 5.76343 3.75 6.28125C3.75 6.79907 4.16968 7.21875 4.6875 7.21875H9.46875C9.98657 7.21875 10.4062 6.79907 10.4062 6.28125C10.4062 5.76343 9.98657 5.34375 9.46875 5.34375ZM13.2188 9.09375H12.75C12.2322 9.09375 11.8125 9.51343 11.8125 10.0312C11.8125 10.5491 12.2322 10.9688 12.75 10.9688H13.2188C13.7366 10.9688 14.1562 10.5491 14.1562 10.0312C14.1562 9.51343 13.7366 9.09375 13.2188 9.09375ZM9.46875 9.09375H4.6875C4.16968 9.09375 3.75 9.51343 3.75 10.0312C3.75 10.5491 4.16968 10.9688 4.6875 10.9688H9.46875C9.98657 10.9688 10.4062 10.5491 10.4062 10.0312C10.4062 9.51343 9.98657 9.09375 9.46875 9.09375ZM9.46875 12.8438H4.6875C4.16968 12.8438 3.75 13.2634 3.75 13.7812C3.75 14.2991 4.16968 14.7188 4.6875 14.7188H9.46875C9.98657 14.7188 10.4062 14.2991 10.4062 13.7812C10.4062 13.2634 9.98657 12.8438 9.46875 12.8438ZM9.46875 16.6406H4.6875C4.16968 16.6406 3.75 17.0603 3.75 17.5781C3.75 18.0959 4.16968 18.5156 4.6875 18.5156H9.46875C9.98657 18.5156 10.4062 18.0959 10.4062 17.5781C10.4062 17.0603 9.98657 16.6406 9.46875 16.6406Z" fill="#72757A"/>
</g>
<defs>
<clipPath id="clip0_1106_10">
<rect width="24" height="24" fill="white"/>
</clipPath>
</defs>
</svg>
