<svg width="24" height="24" viewBox="0 0 24 24" fill="none" xmlns="http://www.w3.org/2000/svg">
<g clip-path="url(#clip0_1106_176)">
<path d="M23.2969 17.9063C23.6852 17.9063 24 17.5914 24 17.2031V15.3281C24 15.0618 23.8495 14.8184 23.6113 14.6992L18.9238 12.3555C18.7259 12.2565 18.4929 12.2565 18.2949 12.3555L13.6074 14.6992C13.3692 14.8184 13.2188 15.0618 13.2188 15.3281V17.2031C13.2188 17.5914 13.5336 17.9063 13.9219 17.9063H14.625V22.5938H13.9219C13.5336 22.5938 13.2188 22.9086 13.2188 23.2969C13.2188 23.6852 13.5336 24 13.9219 24H23.2969C23.6852 24 24 23.6852 24 23.2969C24 22.9086 23.6852 22.5938 23.2969 22.5938H22.5938V17.9063H23.2969ZM17.9062 22.5938H16.0312V17.9063H17.9062V22.5938ZM21.1875 22.5938H19.3125V17.9063H21.1875V22.5938ZM14.625 16.5V15.7627L18.6094 13.7705L22.5938 15.7627V16.5H14.625Z" fill="white"/>
<path d="M10.7812 11.0154C10.7812 10.6271 10.4664 10.3123 10.0781 10.3123H9.375V5.62477H10.0781C10.4664 5.62477 10.7812 5.30996 10.7812 4.92164V3.04664C10.7812 2.7803 10.6308 2.53688 10.3926 2.41772L5.70506 0.0739707C5.50711 -0.0249824 5.27414 -0.0249824 5.07619 0.0739707L0.388687 2.41772C0.150469 2.53688 0 2.7803 0 3.04664V4.92164C0 5.30996 0.314812 5.62477 0.703125 5.62477H1.40625V10.3123H0.703125C0.314812 10.3123 0 10.6271 0 11.0154C0 11.4037 0.314812 11.7185 0.703125 11.7185H10.0781C10.4664 11.7185 10.7812 11.4037 10.7812 11.0154ZM1.40625 3.48122L5.39062 1.48903L9.375 3.48122V4.21852H1.40625V3.48122ZM4.6875 10.3123H2.8125V5.62477H4.6875V10.3123ZM7.96875 10.3123H6.09375V5.62477H7.96875V10.3123Z" fill="white"/>
<path d="M11.0156 19.7813H6.09377V16.5569L6.76845 17.2316C7.04304 17.5061 7.48821 17.5061 7.76281 17.2316C8.0374 16.957 8.0374 16.5118 7.76281 16.2372L5.88781 14.3622C5.61326 14.0876 5.16804 14.0876 4.89345 14.3622L3.01845 16.2372C2.74385 16.5118 2.74385 16.957 3.01845 17.2316C3.29304 17.5061 3.73821 17.5061 4.01281 17.2316L4.68752 16.5569V20.4844C4.68752 20.8727 5.00234 21.1875 5.39065 21.1875H11.0156C11.404 21.1875 11.7188 20.8727 11.7188 20.4844C11.7188 20.0961 11.404 19.7813 11.0156 19.7813Z" fill="white"/>
<path d="M17.9062 7.44314L17.2316 6.76847C16.957 6.49387 16.5118 6.49387 16.2372 6.76847C15.9626 7.04306 15.9626 7.48823 16.2372 7.76283L18.1122 9.63783C18.3868 9.91242 18.832 9.91242 19.1066 9.63783L20.9816 7.76283C21.2562 7.48823 21.2562 7.04306 20.9816 6.76847C20.707 6.49387 20.2618 6.49387 19.9872 6.76847L19.3125 7.44314V3.51562C19.3125 3.12731 18.9977 2.8125 18.6094 2.8125H12.9844C12.5961 2.8125 12.2812 3.12731 12.2812 3.51562C12.2812 3.90394 12.5961 4.21875 12.9844 4.21875H17.9062V7.44314Z" fill="white"/>
</g>
<defs>
<clipPath id="clip0_1106_176">
<rect width="24" height="24" fill="white"/>
</clipPath>
</defs>
</svg>
