<svg width="24" height="24" viewBox="0 0 24 24" fill="none" xmlns="http://www.w3.org/2000/svg">
<g clip-path="url(#clip0_1106_193)">
<path d="M18.9843 12.0472C17.4335 12.0472 16.1718 13.3089 16.1718 14.8597C16.1718 16.4105 17.4335 17.6722 18.9843 17.6722H22.9687C22.9846 17.6722 23.0001 17.6706 23.0158 17.6698C23.0314 17.6706 23.0467 17.6722 23.0625 17.6722C23.5802 17.6722 24 17.2525 24 16.7347V9.37532C24 8.12723 23.3865 7.02028 22.4458 6.3383L19.2564 1.10612C19.1264 0.892744 18.9166 0.740119 18.6735 0.682181C18.4304 0.62415 18.1742 0.665635 17.9619 0.797353L15.6098 2.25591L14.5491 0.460885C14.4216 0.245073 14.213 0.0893545 13.9698 0.0284171C13.7268 -0.0325203 13.4693 0.00652654 13.2551 0.136651L4.22385 5.62533H2.81249C2.30339 5.62533 1.88775 5.21742 1.87528 4.71127C1.88775 4.20511 2.30339 3.79721 2.81249 3.79721H4.54687C5.06465 3.79721 5.48436 3.37749 5.48436 2.85971C5.48436 2.34193 5.06465 1.92221 4.54687 1.92221H2.81249C1.48603 1.92221 0.371202 2.84537 0.0764061 4.08291C0.0273749 4.19663 0 4.32178 0 4.45346V4.68783V4.73471V20.2503C0 22.318 1.68225 24.0003 3.74999 24.0003H20.25C21.8667 24.0003 23.2965 22.9704 23.8078 21.4376C23.9717 20.9464 23.7063 20.4154 23.2152 20.2516C22.7241 20.0878 22.193 20.3531 22.0292 20.8443C21.7736 21.6105 21.0586 22.1253 20.25 22.1253H3.74999C2.71612 22.1253 1.875 21.2842 1.875 20.2503V7.3395C2.16839 7.44356 2.4839 7.50033 2.81249 7.50033H20.25C21.2838 7.50033 22.125 8.34145 22.125 9.37532V12.0472H18.9843ZM22.125 15.7972H18.9843C18.4674 15.7972 18.0468 15.3767 18.0468 14.8597C18.0468 14.3427 18.4674 13.9222 18.9843 13.9222H22.125V15.7972ZM7.83411 5.62538L13.4178 2.23196L14.4161 3.92138C14.4353 3.96755 14.4573 4.01307 14.4845 4.05694C14.5049 4.0898 14.5275 4.12041 14.5511 4.14985L15.4229 5.62538H7.83411V5.62538ZM17.6008 5.62533L16.5639 3.87052L18.1472 2.88872L19.8153 5.62533H17.6008Z" fill="white"/>
</g>
<defs>
<clipPath id="clip0_1106_193">
<rect width="24" height="24" fill="white"/>
</clipPath>
</defs>
</svg>
